 <svg version="1.0" xmlns="http://www.w3.org/2000/svg" width="700.000000pt" height="700.000000pt" viewBox="0 0 700.000000 700.000000" preserveAspectRatio="xMidYMid meet">
<metadata>
Created by potrace 1.12, written by Peter Selinger 2001-2015
</metadata>
<g transform="translate(0.000000,700.000000) scale(0.100000,-0.100000)" fill="#000000" stroke="none">
<path d="M6362 6865 c-30 -7 -142 -18 -250 -24 -109 -6 -251 -18 -317 -27 -66
-9 -174 -20 -240 -25 -66 -5 -205 -18 -310 -29 -354 -36 -410 -41 -590 -56
-99 -8 -214 -19 -255 -24 -41 -6 -178 -14 -305 -20 -126 -5 -284 -14 -350 -20
-66 -6 -250 -15 -410 -20 -461 -13 -1079 -39 -1210 -50 -66 -5 -293 -14 -505
-20 -212 -6 -470 -17 -575 -25 -104 -9 -278 -20 -385 -24 -259 -12 -394 -37
-487 -91 -67 -39 -68 -58 -6 -99 65 -43 85 -46 167 -28 130 31 324 36 1467 43
1148 7 1389 3 1389 -21 0 -7 -7 -16 -16 -19 -9 -4 -152 -11 -318 -16 -378 -12
-713 -28 -881 -40 -71 -5 -206 -12 -300 -15 -93 -4 -215 -13 -270 -20 -55 -8
-145 -19 -200 -24 -103 -11 -151 -23 -223 -60 -35 -18 -42 -26 -42 -52 0 -35
35 -75 76 -85 16 -4 53 -2 84 5 128 27 1852 75 1889 52 20 -13 7 -54 -29 -95
-17 -19 -54 -68 -83 -109 -28 -42 -72 -102 -97 -136 -25 -33 -67 -92 -95 -131
-27 -39 -61 -86 -75 -105 -14 -18 -52 -72 -85 -120 -33 -48 -73 -104 -90 -125
-16 -21 -68 -93 -115 -161 -47 -67 -109 -151 -137 -186 -29 -36 -53 -68 -53
-73 0 -5 -24 -38 -53 -74 -28 -37 -79 -105 -112 -151 -33 -47 -73 -103 -90
-125 -16 -21 -55 -73 -85 -115 -30 -41 -80 -109 -110 -150 -30 -40 -79 -107
-108 -147 -29 -40 -98 -136 -155 -213 -56 -77 -123 -168 -147 -203 -25 -35
-67 -91 -94 -125 -47 -60 -115 -156 -185 -261 -19 -28 -43 -75 -53 -105 -18
-51 -18 -57 -3 -97 29 -77 121 -122 219 -109 57 7 124 56 172 127 16 24 53 72
81 107 29 36 53 69 53 75 0 5 8 18 17 28 10 11 26 34 38 53 11 18 41 64 66
102 25 37 62 93 83 123 20 30 44 66 53 80 9 14 37 56 62 94 25 38 68 101 94
140 26 39 62 93 80 120 37 57 66 100 122 181 22 32 47 68 55 80 8 12 33 47 55
79 22 32 48 70 57 85 9 14 21 31 25 36 5 6 25 35 44 65 53 83 65 100 109 165
23 32 48 73 56 90 7 16 30 50 49 75 19 25 39 55 45 67 11 27 72 118 100 151
11 13 20 30 20 37 0 7 7 19 17 26 9 8 25 32 35 54 10 22 34 60 53 85 19 25 44
62 55 82 11 21 34 57 50 80 17 24 51 75 77 113 25 39 51 77 57 86 6 9 69 103
140 208 71 106 138 198 150 206 12 7 44 16 73 20 106 14 120 -34 34 -115 -71
-67 -275 -309 -386 -458 -11 -15 -40 -53 -65 -86 -58 -76 -77 -101 -125 -171
-47 -69 -73 -105 -114 -160 -17 -22 -38 -53 -47 -70 -9 -16 -41 -58 -70 -92
-29 -34 -56 -72 -60 -85 -4 -12 -25 -47 -48 -77 -23 -29 -49 -68 -58 -85 -9
-18 -23 -38 -32 -45 -9 -8 -16 -19 -16 -27 0 -7 -13 -28 -30 -47 -16 -19 -34
-45 -40 -58 -10 -24 -56 -99 -94 -155 -11 -16 -40 -60 -65 -99 -43 -67 -52
-81 -95 -157 -10 -18 -29 -46 -42 -61 -13 -16 -24 -34 -24 -41 0 -7 -13 -30
-30 -52 -16 -21 -30 -43 -30 -48 0 -4 -11 -21 -25 -38 -14 -16 -25 -35 -25
-42 0 -7 -12 -29 -28 -49 -15 -20 -38 -55 -52 -78 -14 -23 -40 -64 -58 -90
-17 -27 -32 -51 -32 -55 0 -4 -24 -43 -53 -88 -88 -134 -170 -262 -197 -307
-14 -23 -63 -102 -110 -175 -47 -74 -98 -157 -115 -184 -45 -77 -230 -366
-285 -445 -82 -120 -236 -357 -252 -390 -11 -22 -35 -67 -53 -100 -19 -33 -55
-100 -80 -148 -25 -49 -56 -105 -69 -126 -60 -95 -55 -164 15 -224 98 -85 220
-72 317 33 38 41 209 256 303 380 64 84 169 247 182 283 4 9 24 43 45 75 21
31 65 106 98 165 32 59 71 129 86 155 44 77 79 143 114 214 39 78 66 99 95 72
10 -9 19 -23 19 -30 0 -19 56 -156 111 -272 27 -57 49 -105 49 -107 0 -3 33
-73 74 -157 134 -278 326 -687 326 -694 0 -8 17 -46 76 -171 19 -39 34 -74 34
-78 0 -3 23 -53 50 -111 28 -58 50 -107 50 -110 0 -17 117 -241 158 -305 27
-41 57 -90 66 -108 31 -58 166 -184 236 -218 l65 -32 300 -6 c165 -3 413 -9
550 -13 138 -5 480 -7 760 -6 423 1 516 4 545 16 38 16 110 89 110 112 0 7
-17 33 -39 57 l-39 44 -268 0 c-297 0 -903 -13 -914 -20 -4 -3 -184 -7 -400
-9 -328 -5 -397 -3 -420 9 -38 20 -108 100 -178 203 -62 91 -234 401 -247 443
-4 13 -13 34 -21 47 -30 47 -264 505 -264 517 0 6 -76 142 -126 225 -8 14 -22
40 -30 59 -9 19 -75 143 -148 275 -73 133 -177 329 -231 436 -54 107 -106 207
-116 222 -24 34 -24 89 0 119 10 13 36 56 56 94 21 39 63 113 94 165 31 52 63
109 73 125 9 17 52 93 95 170 44 77 129 228 190 335 159 283 185 328 296 510
55 91 111 184 124 207 14 23 38 54 55 68 29 25 32 25 137 19 58 -4 114 -11
124 -16 28 -14 20 -46 -37 -137 -69 -111 -146 -244 -236 -406 -40 -71 -90
-157 -111 -191 -22 -34 -39 -64 -39 -68 0 -4 -19 -39 -41 -79 -23 -40 -65
-117 -94 -172 -29 -55 -67 -125 -85 -155 -17 -30 -54 -97 -82 -150 -27 -52
-67 -124 -88 -160 -22 -36 -42 -81 -46 -99 -9 -47 11 -173 35 -219 22 -41 68
-133 144 -287 28 -55 58 -111 67 -125 10 -14 32 -54 50 -90 19 -36 99 -184
179 -330 79 -146 215 -407 302 -580 143 -286 182 -367 311 -640 72 -153 83
-172 117 -206 46 -44 95 -51 203 -29 149 32 178 34 574 34 254 1 402 5 422 12
49 17 72 64 72 145 0 38 7 139 14 225 8 85 20 279 26 430 6 151 20 450 31 664
10 215 19 497 18 627 l-1 237 -38 35 c-49 44 -69 47 -360 49 -184 2 -240 -1
-260 -12 -29 -16 -69 -61 -70 -77 0 -7 20 -28 44 -48 l44 -36 150 0 c190 0
186 3 172 -131 -6 -56 -8 -275 -5 -544 15 -1337 15 -1341 0 -1362 -13 -19 -30
-20 -327 -28 -172 -5 -342 -9 -378 -9 l-64 -1 -34 60 c-33 58 -131 252 -195
385 -18 36 -39 76 -48 90 -9 14 -20 36 -24 50 -4 14 -28 61 -52 105 -25 44
-56 98 -68 120 -142 252 -170 299 -273 458 -30 45 -70 111 -90 147 -19 36 -60
103 -90 150 -69 107 -86 133 -157 250 -32 52 -65 106 -75 120 -10 14 -27 46
-40 70 -12 25 -33 56 -45 70 -21 23 -29 47 -26 76 0 5 16 26 34 46 17 20 51
71 73 114 23 44 49 93 57 109 9 17 174 347 367 735 249 501 358 711 377 724
24 18 32 18 97 8 368 -59 1630 -57 1970 4 153 27 159 30 198 71 52 55 31 139
-45 181 -38 20 -134 21 -312 4 -66 -7 -185 -17 -265 -22 -80 -6 -176 -15 -215
-21 -42 -7 -318 -13 -685 -16 -601 -5 -616 -5 -633 15 -13 15 -15 25 -8 44 17
45 31 48 227 58 104 6 254 14 334 19 80 6 255 17 390 26 135 8 340 23 455 31
116 9 272 20 348 23 l138 7 42 42 41 42 -39 40 -39 40 -298 0 c-164 0 -474 -7
-690 -15 -495 -18 -641 -23 -958 -31 -227 -6 -256 -5 -268 9 -19 22 -9 46 53
124 88 110 98 124 135 177 103 150 367 460 407 480 30 14 76 15 450 5 502 -12
1177 -5 1348 16 66 7 161 17 210 20 287 20 365 55 365 163 0 38 -5 50 -38 82
l-37 38 -125 7 c-69 4 -379 1 -690 -5 -623 -14 -721 -14 -764 -2 -100 27 39
53 279 51 94 -1 186 2 205 5 19 4 96 11 170 16 74 5 178 13 230 19 52 5 239
14 415 21 300 10 430 22 735 66 108 15 187 44 247 90 32 24 33 28 33 94 l0 70
-42 27 c-148 93 -147 93 -291 91 -73 0 -156 -6 -185 -13z m-2782 -565 c0 -5
-6 -10 -14 -10 -8 0 -18 5 -21 10 -3 6 3 10 14 10 12 0 21 -4 21 -10z m-259
-1330 c25 -14 24 -32 -6 -64 -23 -25 -29 -26 -119 -26 -52 0 -106 4 -119 9
-34 13 -44 47 -21 72 15 17 31 19 131 19 63 0 123 -5 134 -10z"></path>
</g>
</svg>